<svg width="200" height="200" viewBox="0 0 200 200" fill="none" xmlns="http://www.w3.org/2000/svg">
<rect width="200" height="200" fill="white"/>
<path d="M116.667 58.3335H66.6667C65.5616 58.3335 64.5018 58.7725 63.7204 59.5539C62.939 60.3353 62.5 61.3951 62.5 62.5002V137.5C62.5 138.605 62.939 139.665 63.7204 140.446C64.5018 141.228 65.5616 141.667 66.6667 141.667H101.062C97.3846 136.39 95.5543 130.045 95.8566 123.619C96.1588 117.194 98.5766 111.049 102.734 106.14C106.891 101.232 112.554 97.835 118.842 96.4788C125.129 95.1227 131.689 95.8831 137.5 98.6418V79.1668L116.667 58.3335ZM107.442 113.863C107.604 110.833 109.942 108.367 112.958 108.046L116.583 107.663C117.015 107.616 117.422 107.435 117.746 107.146L120.458 104.708C121.55 103.725 122.957 103.163 124.426 103.125C125.895 103.087 127.33 103.575 128.471 104.5L131.312 106.792C131.646 107.063 132.062 107.221 132.496 107.246L136.137 107.442C139.167 107.604 141.633 109.942 141.954 112.958L142.337 116.583C142.384 117.015 142.565 117.422 142.854 117.746L145.292 120.458C147.321 122.717 147.408 126.113 145.5 128.471L143.208 131.313C142.938 131.65 142.779 132.064 142.754 132.496L142.558 136.138C142.483 137.606 141.886 138.998 140.874 140.065C139.863 141.131 138.504 141.801 137.042 141.954L133.417 142.338C132.985 142.384 132.578 142.565 132.254 142.854L129.542 145.292C128.45 146.276 127.043 146.837 125.574 146.875C124.105 146.913 122.67 146.426 121.529 145.5L118.688 143.208C118.35 142.938 117.936 142.779 117.504 142.754L113.862 142.558C112.395 142.483 111.002 141.886 109.935 140.874C108.869 139.863 108.199 138.504 108.046 137.042L107.662 133.417C107.616 132.985 107.435 132.578 107.146 132.254L104.708 129.542C103.725 128.45 103.163 127.043 103.125 125.574C103.087 124.105 103.574 122.671 104.5 121.529L106.792 118.688C107.062 118.35 107.221 117.936 107.246 117.504L107.442 113.863ZM137.625 120.958L133.208 116.542L122.917 126.833L116.792 120.708L112.375 125.125L120.708 133.458L122.917 135.667L125.125 133.458L137.625 120.958Z" fill="#1C1B1C"/>
</svg>
